HIERARCHY
ROOT Hips
{
	OFFSET -0.001795 -0.223333 0.028219
	CHANNELS 6 Xposition Yposition Zposition Zrotation Yrotation Xrotation 
	JOINT LeftUpLeg
	{
		OFFSET 0.069520 -0.091406 -0.006815
		CHANNELS 3 Zrotation Yrotation Xrotation
		JOINT LeftLeg
		{
			OFFSET 0.034277 -0.375199 -0.004496
			CHANNELS 3 Zrotation Yrotation Xrotation
			JOINT LeftFoot
			{
				OFFSET -0.013596 -0.397961 -0.043693
				CHANNELS 3 Zrotation Yrotation Xrotation
				JOINT LeftToe
				{
					OFFSET 0.026358 -0.055791 0.119288
					CHANNELS 3 Zrotation Yrotation Xrotation
					End Site
					{
						OFFSET 0.000000 0.000000 0.000000
					}
				}
			}
		}
	}
	JOINT RightUpLeg
	{
		OFFSET -0.067670 -0.090522 -0.004320
		CHANNELS 3 Zrotation Yrotation Xrotation
		JOINT RightLeg
		{
			OFFSET -0.038290 -0.382569 -0.008850
			CHANNELS 3 Zrotation Yrotation Xrotation
			JOINT RightFoot
			{
				OFFSET 0.015774 -0.398415 -0.042312
				CHANNELS 3 Zrotation Yrotation Xrotation
				JOINT RightToe
				{
					OFFSET -0.025372 -0.048144 0.123348
					CHANNELS 3 Zrotation Yrotation Xrotation
					End Site
					{
						OFFSET 0.000000 0.000000 0.000000
					}
				}
			}
		}
	}
	JOINT Spine
	{
		OFFSET -0.002533 0.108963 -0.026696
		CHANNELS 3 Zrotation Yrotation Xrotation
		JOINT Spine1
		{
			OFFSET 0.005487 0.135180 0.001092
			CHANNELS 3 Zrotation Yrotation Xrotation
			JOINT Spine2
			{
				OFFSET 0.001457 0.052922 0.025425
				CHANNELS 3 Zrotation Yrotation Xrotation
				JOINT Neck
				{
					OFFSET -0.002778 0.213870 -0.042857
					CHANNELS 3 Zrotation Yrotation Xrotation
					JOINT Head
					{
						OFFSET 0.005152 0.064970 0.051349
						CHANNELS 3 Zrotation Yrotation Xrotation
						End Site
						{
							OFFSET 0.000000 0.000000 0.000000
						}
					}
				}
				JOINT LeftShoulder
				{
					OFFSET 0.078845 0.121749 -0.034090
					CHANNELS 3 Zrotation Yrotation Xrotation
					JOINT LeftArm
					{
						OFFSET 0.090977 0.030469 -0.008868
						CHANNELS 3 Zrotation Yrotation Xrotation
						JOINT LeftForeArm
						{
							OFFSET 0.259612 -0.012772 -0.027456
							CHANNELS 3 Zrotation Yrotation Xrotation
							JOINT LeftHand
							{
								OFFSET 0.249234 0.008986 -0.001171
								CHANNELS 3 Zrotation Yrotation Xrotation
								End Site
								{
									OFFSET 0.000000 0.000000 0.000000
								}
							}
						}
					}
				}
				JOINT RightShoulder
				{
					OFFSET -0.081759 0.118833 -0.038615
					CHANNELS 3 Zrotation Yrotation Xrotation
					JOINT RightArm
					{
						OFFSET -0.096012 0.032551 -0.009143
						CHANNELS 3 Zrotation Yrotation Xrotation
						JOINT RightForeArm
						{
							OFFSET -0.253742 -0.013329 -0.021401
							CHANNELS 3 Zrotation Yrotation Xrotation
							JOINT RightHand
							{
								OFFSET -0.255298 0.007772 -0.005559
								CHANNELS 3 Zrotation Yrotation Xrotation
								End Site
								{
									OFFSET 0.000000 0.000000 0.000000
								}
							}
						}
					}
				}
			}
		}
	}
}
MOTION
Frames: 15
Frame Time: 0.050000
0.016952 0.950350 0.930321 -2.348911 -0.711712 -0.594356 -0.706321 0.161881 1.586569 2.287341 -0.166706 -1.611501 -3.458864 -4.772590 4.601352 0.000000 0.000000 0.000000 3.439008 -0.121201 0.339073 -2.189962 0.308593 1.301692 2.240783 3.374218 3.800743 0.000000 0.000000 0.000000 -2.325757 -0.076905 4.427398 0.437602 -0.152369 -1.939002 1.745849 -0.562036 6.627546 1.218790 0.614516 -21.018011 0.000000 0.000000 0.000000 -27.198729 -0.427610 -1.954391 -43.179713 -6.096176 -3.334853 -13.546910 -26.647559 4.310056 0.000000 0.000000 0.000000 25.418030 5.425762 0.477056 48.767516 2.399516 -3.830900 7.601938 30.264248 2.876518 0.000000 0.000000 0.000000 
0.017144 0.950293 0.930159 -2.312392 -0.621045 -0.491954 -0.710313 0.150396 1.466601 2.438795 -0.192082 -1.408684 -3.454017 -4.879136 4.379652 0.000000 0.000000 0.000000 3.412705 -0.133380 0.433313 -2.167195 0.310607 1.376213 2.180484 3.382238 3.553253 0.000000 0.000000 0.000000 -2.330450 -0.075920 4.424038 0.463198 -0.161170 -2.015588 1.688612 -0.501463 6.661789 1.557497 0.446680 -21.098247 0.000000 0.000000 0.000000 -27.270484 -0.525914 -1.940752 -43.180482 -5.960175 -3.369401 -13.442776 -26.493471 4.251934 0.000000 0.000000 0.000000 25.399932 5.487703 0.562168 48.788252 2.321132 -3.877746 7.450256 30.511749 2.873836 0.000000 0.000000 0.000000 
0.017306 0.950275 0.929927 -2.253030 -0.401421 -0.451200 -0.663747 0.144884 1.420839 2.425730 -0.203660 -1.159030 -3.520051 -5.089794 4.212874 0.000000 0.000000 0.000000 3.381212 -0.132601 0.437857 -2.143467 0.321210 1.592930 2.084127 3.360246 3.220593 0.000000 0.000000 0.000000 -2.351937 -0.079156 4.625671 0.488526 -0.165781 -2.195419 1.592412 -0.525563 6.636365 1.772796 0.336375 -21.046287 0.000000 0.000000 0.000000 -27.340929 -0.781912 -1.824061 -43.018906 -5.908909 -3.363518 -13.266045 -26.501915 4.204382 0.000000 0.000000 0.000000 25.431451 5.302528 0.486144 48.700515 2.198118 -3.927540 7.554028 30.413020 2.897236 0.000000 0.000000 0.000000 
0.017435 0.950235 0.929685 -2.251097 -0.125216 -0.438200 -0.566545 0.140366 1.398023 2.342950 -0.202910 -0.999763 -3.570497 -5.214443 4.140133 0.000000 0.000000 0.000000 3.431317 -0.150060 0.569367 -2.153337 0.317762 1.500165 2.222788 3.812051 3.046560 0.000000 0.000000 0.000000 -2.311244 -0.087388 4.906506 0.465798 -0.155024 -2.142636 1.636888 -0.558966 6.350136 1.849555 0.323657 -21.231263 0.000000 0.000000 0.000000 -27.711423 -0.769783 -1.914131 -42.758354 -6.094927 -3.251897 -12.932742 -26.263948 4.076647 0.000000 0.000000 0.000000 25.541634 5.331669 0.522423 48.603640 2.209568 -3.899889 6.995818 29.957828 2.711546 0.000000 0.000000 0.000000 
0.017461 0.949971 0.929404 -2.173540 0.013676 -0.491986 -0.508319 0.142990 1.441447 2.252009 -0.207374 -0.739171 -3.414810 -5.068424 3.834764 0.000000 0.000000 0.000000 3.454987 -0.179059 0.794006 -2.232935 0.327535 1.495601 2.206574 3.904628 2.837801 0.000000 0.000000 0.000000 -2.352785 -0.092144 5.194882 0.519880 -0.178999 -2.145315 1.649463 -0.611144 6.187153 1.713197 0.393491 -21.109811 0.000000 0.000000 0.000000 -27.937938 -0.641052 -2.032068 -42.708495 -6.268450 -3.174930 -12.482647 -26.098820 3.940763 0.000000 0.000000 0.000000 25.261084 5.252046 0.489479 48.860059 2.313076 -3.869611 6.569964 29.609131 2.570908 0.000000 0.000000 0.000000 
0.017376 0.949818 0.929122 -2.148219 0.226158 -0.568097 -0.337158 0.144141 1.499592 1.921576 -0.186948 -0.457344 -3.280404 -4.855596 3.712167 0.000000 0.000000 0.000000 3.490921 -0.218819 1.099942 -2.191427 0.307857 1.235497 2.225819 4.042314 2.703593 0.000000 0.000000 0.000000 -2.374850 -0.096648 5.416569 0.539376 -0.190405 -2.025709 1.692881 -0.681186 5.927443 1.534362 0.500789 -21.154992 0.000000 0.000000 0.000000 -28.241792 -0.666645 -2.063190 -42.534678 -6.428766 -3.091380 -12.037376 -25.860872 3.795739 0.000000 0.000000 0.000000 25.117716 5.259002 0.500047 49.099305 2.536324 -3.783642 5.778945 29.027343 2.321389 0.000000 0.000000 0.000000 
0.017068 0.949707 0.928785 -2.161288 0.289817 -0.501740 -0.248341 0.134011 1.413973 1.879924 -0.188934 -0.326422 -3.140434 -4.654583 3.563230 0.000000 0.000000 0.000000 3.459733 -0.246126 1.311691 -2.035976 0.270897 0.910453 2.213308 3.987930 2.749044 0.000000 0.000000 0.000000 -2.382484 -0.095884 5.416493 0.640241 -0.237435 -1.993970 1.580573 -0.706750 5.895013 1.501854 0.513364 -21.030034 0.000000 0.000000 0.000000 -28.282503 -0.648396 -2.092130 -42.603340 -6.557433 -3.046181 -11.516385 -25.439377 3.610135 0.000000 0.000000 0.000000 25.118399 5.349706 0.565842 49.314000 2.716958 -3.729170 5.054532 28.653953 2.119103 0.000000 0.000000 0.000000 
0.016630 0.949670 0.928457 -2.267190 0.313194 -0.274873 -0.066587 0.108916 1.186550 1.734862 -0.177482 -0.238783 -3.089302 -4.580436 3.509730 0.000000 0.000000 0.000000 3.532744 -0.256489 1.354907 -1.893852 0.226170 0.409674 2.182570 3.711388 3.093258 0.000000 0.000000 0.000000 -2.331543 -0.091909 5.179315 0.741125 -0.282793 -2.011399 1.529408 -0.741262 6.010323 1.430215 0.535494 -20.826449 0.000000 0.000000 0.000000 -28.173809 -0.661444 -2.065526 -42.799777 -6.767164 -2.995952 -11.205915 -25.042245 3.483680 0.000000 0.000000 0.000000 24.916481 5.329494 0.569221 49.710785 3.066176 -3.629444 4.320879 28.164645 1.911725 0.000000 0.000000 0.000000 
0.016077 0.949700 0.928134 -2.326423 0.339491 -0.169553 0.027486 0.095081 1.057400 1.657587 -0.166350 -0.293671 -3.094080 -4.603570 3.483613 0.000000 0.000000 0.000000 3.597665 -0.289833 1.581742 -1.807440 0.184657 -0.166514 2.165563 3.497933 3.392921 0.000000 0.000000 0.000000 -2.388292 -0.084364 4.993936 0.803163 -0.307243 -2.113052 1.576571 -0.722960 6.226017 1.573096 0.461531 -20.889495 0.000000 0.000000 0.000000 -28.337098 -0.942951 -1.900052 -42.659552 -6.784764 -2.997033 -10.875542 -24.910928 3.391275 0.000000 0.000000 0.000000 24.949501 5.463572 0.668552 49.721275 2.964774 -3.692202 4.024237 28.141347 1.846346 0.000000 0.000000 0.000000 
0.015536 0.949827 0.927802 -2.498844 0.404075 -0.033696 0.301494 0.078236 0.936500 1.561954 -0.150559 -0.403858 -3.162371 -4.554982 3.808578 0.000000 0.000000 0.000000 3.716612 -0.276214 1.438660 -1.798396 0.176484 -0.298744 2.078908 3.124784 3.692795 0.000000 0.000000 0.000000 -2.308177 -0.086348 4.931452 0.922534 -0.354501 -2.290084 1.473383 -0.703949 6.435720 1.606212 0.450271 -20.888486 0.000000 0.000000 0.000000 -28.359636 -1.162741 -1.782784 -42.794462 -6.821476 -2.999517 -10.518713 -25.156842 3.345914 0.000000 0.000000 0.000000 25.235273 5.418142 0.664389 49.676008 2.914660 -3.733835 3.839153 28.160320 1.813650 0.000000 0.000000 0.000000 
0.015111 0.949875 0.927385 -2.617953 0.327611 0.093920 0.404287 0.053651 0.679351 1.577645 -0.157077 -0.304952 -3.180705 -4.667481 3.681290 0.000000 0.000000 0.000000 3.868429 -0.259438 1.261807 -1.837851 0.174024 -0.409326 1.986898 2.732657 3.997138 0.000000 0.000000 0.000000 -2.323833 -0.080736 4.752880 0.947308 -0.360464 -2.441702 1.528391 -0.775115 6.728956 1.541533 0.494236 -21.211835 0.000000 0.000000 0.000000 -28.248889 -1.265510 -1.650360 -42.882172 -7.037112 -2.968599 -10.349813 -25.382405 3.348355 0.000000 0.000000 0.000000 25.168587 5.670251 0.795287 49.915424 2.843518 -3.795507 3.495546 28.326791 1.744493 0.000000 0.000000 0.000000 
0.014870 0.950141 0.926892 -2.620507 0.244170 0.265552 0.406782 0.042252 0.549536 1.570031 -0.148780 -0.464437 -3.159005 -4.479543 3.950213 0.000000 0.000000 0.000000 4.024224 -0.243052 1.085862 -1.819347 0.184651 -0.175615 1.634909 1.915483 3.968240 0.000000 0.000000 0.000000 -2.521224 -0.065443 4.561158 1.044763 -0.399989 -2.573676 1.457722 -0.756468 6.946716 1.624750 0.404790 -20.694620 0.000000 0.000000 0.000000 -28.277423 -1.695238 -1.360807 -42.962272 -7.083688 -2.976437 -9.985792 -25.634719 3.304195 0.000000 0.000000 0.000000 25.283369 5.791106 0.870351 50.004012 2.851863 -3.815313 3.352331 28.374113 1.717842 0.000000 0.000000 0.000000 
0.014864 0.950585 0.926315 -2.607898 0.174830 0.277630 0.427891 0.031472 0.429032 1.515533 -0.143551 -0.457969 -3.271158 -4.627672 4.093965 0.000000 0.000000 0.000000 4.043845 -0.212353 0.853770 -1.715529 0.197645 0.264541 1.491606 1.623175 3.876396 0.000000 0.000000 0.000000 -2.653287 -0.057331 4.486360 1.054760 -0.408375 -2.487844 1.421817 -0.986874 6.949530 1.448559 0.460546 -20.545054 0.000000 0.000000 0.000000 -28.132068 -1.764917 -1.201755 -43.022561 -7.373648 -2.913861 -9.785072 -25.961976 3.317166 0.000000 0.000000 0.000000 25.277596 6.007821 0.906783 50.140437 2.676989 -3.867471 3.210525 28.614408 1.684124 0.000000 0.000000 0.000000 
0.015011 0.951298 0.925608 -2.598028 0.223054 0.257867 0.443218 0.024448 0.351348 1.460856 -0.140060 -0.407578 -3.224433 -4.455129 4.232172 0.000000 0.000000 0.000000 4.143331 -0.153827 0.409018 -1.763687 0.239938 0.934142 1.141180 0.827804 3.828904 0.000000 0.000000 0.000000 -2.685072 -0.053838 4.358886 1.148577 -0.441128 -2.725772 1.258791 -1.280844 7.459644 1.650964 0.261767 -19.901295 0.000000 0.000000 0.000000 -28.214727 -2.126448 -0.857992 -43.002930 -7.526895 -2.935738 -9.508219 -26.419143 3.332913 0.000000 0.000000 0.000000 25.394847 6.422305 1.089211 50.082022 2.586967 -3.920334 3.360157 29.358181 1.760877 0.000000 0.000000 0.000000 
0.015324 0.951841 0.924771 -2.574306 0.040267 0.172077 0.493677 0.016930 0.270141 1.316799 -0.130594 -0.293109 -3.270691 -4.385605 4.545500 0.000000 0.000000 0.000000 3.979848 -0.105069 0.083862 -1.529813 0.245218 1.546223 1.167721 0.858762 3.868063 0.000000 0.000000 0.000000 -2.601220 -0.059112 4.413300 1.052997 -0.411437 -2.416729 1.092669 -1.418784 7.221322 1.457814 0.332082 -19.653978 0.000000 0.000000 0.000000 -28.180163 -2.408766 -0.600635 -42.965268 -7.826071 -2.840242 -9.396393 -26.751416 3.359373 0.000000 0.000000 0.000000 25.234987 6.601975 1.119657 50.341075 2.624634 -3.882945 3.833408 29.920979 1.897371 0.000000 0.000000 0.000000 
